# Blender v2.78 (sub 0) OBJ File: 'handModel.blend'
# www.blender.org
o Metacarpale_V_Cube.011
v 1.893656 -0.387172 -1.269746
v 1.893656 0.549478 -1.269746
v 2.309043 -0.332670 -4.539103
v 2.309043 0.494976 -4.539103
v 2.825810 -0.387172 -1.178082
v 2.825810 0.549478 -1.178082
v 3.132716 -0.332670 -4.458107
v 3.132716 0.494976 -4.458107
v 2.323430 -0.249614 -3.884837
v 2.323430 0.411919 -3.884837
v 2.981788 -0.249614 -3.820098
v 2.981788 0.411919 -3.820098
v 2.145576 -0.249614 -2.361119
v 2.803934 0.411919 -2.296380
v 2.145576 0.411919 -2.361119
v 2.803934 -0.249614 -2.296380
v 1.660121 -0.227426 -0.733038
v 1.660121 0.389731 -0.733038
v 2.274316 -0.227426 -0.672642
v 2.274316 0.389731 -0.672642
vn -0.9998 0.0000 0.0220
vn 0.0979 0.0000 -0.9952
vn 0.9998 0.0000 -0.0196
vn -0.0979 0.0000 0.9952
vn 0.0120 -0.9924 -0.1223
vn 0.0120 0.9924 -0.1223
vn -0.0124 0.9919 0.1262
vn -0.0124 -0.9919 0.1262
vn 0.9731 0.0000 0.2302
vn -0.9933 0.0000 -0.1159
vn -0.9744 0.0000 -0.2249
vn 0.0000 1.0000 0.0000
vn 0.0000 -1.0000 0.0000
vn 0.9933 0.0000 0.1159
vn -0.0270 0.9612 0.2744
vn -0.0270 -0.9612 0.2744
vn -0.6757 0.0000 -0.7372
s off
f 9//1 4//1 3//1
f 4//2 7//2 3//2
f 14//3 5//3 16//3
f 6//4 1//4 5//4
f 13//5 5//5 1//5
f 15//6 6//6 14//6
f 4//7 12//7 8//7
f 3//8 11//8 9//8
f 7//9 12//9 11//9
f 15//10 9//10 13//10
f 2//11 13//11 1//11
f 10//12 14//12 12//12
f 9//13 16//13 13//13
f 12//14 16//14 11//14
f 2//15 20//15 6//15
f 1//16 19//16 17//16
f 5//17 20//17 6//17
f 9//1 10//1 4//1
f 4//2 8//2 7//2
f 14//3 6//3 5//3
f 6//4 2//4 1//4
f 13//5 16//5 5//5
f 15//6 2//6 6//6
f 4//7 10//7 12//7
f 3//8 7//8 11//8
f 7//9 8//9 12//9
f 15//10 10//10 9//10
f 2//11 15//11 13//11
f 10//12 15//12 14//12
f 9//13 11//13 16//13
f 12//14 14//14 16//14
f 2//15 18//15 20//15
f 1//16 5//16 19//16
f 5//17 19//17 20//17
o Metacarpale_IV_Cube.010
v 0.992766 -0.387172 -1.489989
v 0.992766 0.549478 -1.489989
v 1.304601 -0.332670 -4.948317
v 1.304601 0.494976 -4.948317
v 1.926836 -0.387172 -1.420526
v 1.926836 0.549478 -1.420526
v 2.129967 -0.332670 -4.886937
v 2.129967 0.494976 -4.886937
v 1.337651 -0.249614 -4.272806
v 1.337651 0.411919 -4.272806
v 1.997363 -0.249614 -4.223746
v 1.997363 0.411919 -4.223746
v 1.214470 -0.249614 -2.616388
v 1.874181 0.411919 -2.567328
v 1.214470 0.411919 -2.616388
v 1.874181 -0.249614 -2.567328
vn -0.9988 0.0000 0.0489
vn 0.0742 0.0000 -0.9972
vn 0.9989 0.0000 -0.0459
vn -0.0742 0.0000 0.9972
vn 0.0089 -0.9928 -0.1195
vn 0.0089 0.9928 -0.1195
vn -0.0091 0.9924 0.1225
vn -0.0091 -0.9924 0.1225
vn 0.9806 0.0000 0.1961
vn -0.9972 0.0000 -0.0742
vn -0.9812 0.0000 -0.1931
vn 0.0000 1.0000 -0.0000
vn 0.0000 -1.0000 0.0000
vn 0.9972 0.0000 0.0742
s off
f 30//18 23//18 29//18
f 24//19 27//19 23//19
f 34//20 25//20 36//20
f 26//21 21//21 25//21
f 36//22 21//22 33//22
f 34//23 22//23 26//23
f 24//24 32//24 28//24
f 23//25 31//25 29//25
f 28//26 31//26 27//26
f 35//27 29//27 33//27
f 22//28 33//28 21//28
f 30//29 34//29 32//29
f 29//30 36//30 33//30
f 32//31 36//31 31//31
f 30//18 24//18 23//18
f 24//19 28//19 27//19
f 34//20 26//20 25//20
f 26//21 22//21 21//21
f 36//22 25//22 21//22
f 34//23 35//23 22//23
f 24//24 30//24 32//24
f 23//25 27//25 31//25
f 28//26 32//26 31//26
f 35//27 30//27 29//27
f 22//28 35//28 33//28
f 30//29 35//29 34//29
f 29//30 31//30 36//30
f 32//31 34//31 36//31
o Metacarpale_III_Cube.009
v 0.111924 -0.366392 -1.676183
v 0.111924 0.570258 -1.676183
v 0.206983 -0.311890 -5.147240
v 0.206983 0.515756 -5.147240
v 1.048509 -0.366392 -1.665241
v 1.048509 0.570258 -1.665241
v 1.034572 -0.311890 -5.137571
v 1.034572 0.515756 -5.137571
v 0.282192 -0.228834 -4.475117
v 0.282192 0.432700 -4.475117
v 0.943681 -0.228834 -4.467388
v 0.943681 0.432700 -4.467388
v 0.262788 -0.228834 -2.814238
v 0.924276 0.432700 -2.806509
v 0.262788 0.432700 -2.814238
v 0.924276 -0.228834 -2.806509
vn -0.9938 0.0000 0.1112
vn 0.0117 0.0000 -0.9999
vn 0.9941 0.0000 -0.1082
vn -0.0117 0.0000 0.9999
vn 0.0014 -0.9928 -0.1198
vn 0.0014 0.9928 -0.1198
vn -0.0014 0.9924 0.1228
vn -0.0014 -0.9924 0.1228
vn 0.9909 0.0000 0.1344
vn -0.9999 0.0000 -0.0117
vn -0.9913 0.0000 -0.1314
vn 0.0000 1.0000 0.0000
vn 0.0000 -1.0000 -0.0000
vn 0.9999 0.0000 0.0117
s off
f 46//32 39//32 45//32
f 40//33 43//33 39//33
f 50//34 41//34 52//34
f 42//35 37//35 41//35
f 52//36 37//36 49//36
f 51//37 42//37 50//37
f 44//38 46//38 48//38
f 43//39 45//39 39//39
f 44//40 47//40 43//40
f 51//41 45//41 49//41
f 38//42 49//42 37//42
f 48//43 51//43 50//43
f 47//44 49//44 45//44
f 48//45 52//45 47//45
f 46//32 40//32 39//32
f 40//33 44//33 43//33
f 50//34 42//34 41//34
f 42//35 38//35 37//35
f 52//36 41//36 37//36
f 51//37 38//37 42//37
f 44//38 40//38 46//38
f 43//39 47//39 45//39
f 44//40 48//40 47//40
f 51//41 46//41 45//41
f 38//42 51//42 49//42
f 48//43 46//43 51//43
f 47//44 52//44 49//44
f 48//45 50//45 52//45
o Metacarpale_II_Cube.008
v -0.935064 -0.366392 -1.257229
v -0.935064 0.570258 -1.257229
v -0.880562 -0.311890 -4.729159
v -0.880562 0.515756 -4.729159
v 0.001586 -0.366392 -1.257229
v 0.001586 0.570258 -1.257229
v -0.052916 -0.311890 -4.729159
v -0.052916 0.515756 -4.729159
v -0.797506 -0.228834 -4.057961
v -0.797506 0.432700 -4.057961
v -0.135972 -0.228834 -4.057961
v -0.135972 0.432700 -4.057961
v -0.797506 -0.228834 -2.396968
v -0.135972 0.432700 -2.396968
v -0.797506 0.432700 -2.396968
v -0.135972 -0.228834 -2.396968
vn -0.9924 0.0000 0.1228
vn 0.0000 0.0000 -1.0000
vn 0.9928 0.0000 -0.1198
vn 0.0000 0.0000 1.0000
vn 0.0000 -0.9928 -0.1198
vn 0.0000 0.9928 -0.1198
vn 0.0000 0.9924 0.1228
vn 0.0000 -0.9924 0.1228
vn 0.9924 0.0000 0.1228
vn -1.0000 0.0000 0.0000
vn -0.9928 0.0000 -0.1198
vn 0.0000 1.0000 0.0000
vn 0.0000 -1.0000 0.0000
vn 1.0000 0.0000 0.0000
s off
f 62//46 55//46 61//46
f 56//47 59//47 55//47
f 66//48 57//48 68//48
f 58//49 53//49 57//49
f 68//50 53//50 65//50
f 67//51 58//51 66//51
f 60//52 62//52 64//52
f 59//53 61//53 55//53
f 60//54 63//54 59//54
f 67//55 61//55 65//55
f 54//56 65//56 53//56
f 62//57 66//57 64//57
f 63//58 65//58 61//58
f 64//59 68//59 63//59
f 62//46 56//46 55//46
f 56//47 60//47 59//47
f 66//48 58//48 57//48
f 58//49 54//49 53//49
f 68//50 57//50 53//50
f 67//51 54//51 58//51
f 60//52 56//52 62//52
f 59//53 63//53 61//53
f 60//54 64//54 63//54
f 67//55 62//55 61//55
f 54//56 67//56 65//56
f 62//57 67//57 66//57
f 63//58 68//58 65//58
f 64//59 66//59 68//59
o Oses_Cube.003
v 2.059432 -0.259693 0.426493
v 2.059432 0.310931 0.426493
v 2.059432 -0.259693 -0.144131
v 2.059432 0.310931 -0.144131
v 2.630056 -0.259693 0.426493
v 2.630056 0.310931 0.426493
v 2.630056 -0.259693 -0.144131
v 2.630056 0.310931 -0.144131
vn -1.0000 0.0000 0.0000
vn 0.0000 0.0000 -1.0000
vn 1.0000 0.0000 0.0000
vn 0.0000 0.0000 1.0000
vn 0.0000 -1.0000 0.0000
vn 0.0000 1.0000 0.0000
s off
f 70//60 71//60 69//60
f 72//61 75//61 71//61
f 76//62 73//62 75//62
f 74//63 69//63 73//63
f 75//64 69//64 71//64
f 72//65 74//65 76//65
f 70//60 72//60 71//60
f 72//61 76//61 75//61
f 76//62 74//62 73//62
f 74//63 70//63 69//63
f 75//64 73//64 69//64
f 72//65 70//65 74//65
o Cube.007
v 1.128620 -0.433101 -0.473828
v 1.128620 0.538974 -0.473828
v 1.128620 -0.433101 -1.445904
v 1.128620 0.538974 -1.445904
v 2.100695 -0.433101 -0.473828
v 2.100695 0.538974 -0.473828
v 2.100695 -0.433101 -1.445904
v 2.100695 0.538974 -1.445904
vn -1.0000 0.0000 0.0000
vn 0.0000 0.0000 -1.0000
vn 1.0000 0.0000 0.0000
vn 0.0000 0.0000 1.0000
vn 0.0000 -1.0000 0.0000
vn 0.0000 1.0000 0.0000
s off
f 78//66 79//66 77//66
f 80//67 83//67 79//67
f 84//68 81//68 83//68
f 82//69 77//69 81//69
f 83//70 77//70 79//70
f 80//71 82//71 84//71
f 78//66 80//66 79//66
f 80//67 84//67 83//67
f 84//68 82//68 81//68
f 82//69 78//69 77//69
f 83//70 81//70 77//70
f 80//71 78//71 82//71
o Cube.006
v 0.078551 -0.429414 -0.249627
v 0.078551 0.607461 -0.249627
v 0.078551 -0.429414 -1.718191
v 0.078551 0.607461 -1.718191
v 1.115427 -0.429414 -0.249627
v 1.115427 0.607461 -0.249627
v 1.115427 -0.429414 -1.718191
v 1.115427 0.607461 -1.718191
vn -1.0000 0.0000 0.0000
vn 0.0000 0.0000 -1.0000
vn 1.0000 0.0000 0.0000
vn 0.0000 0.0000 1.0000
vn 0.0000 -1.0000 0.0000
vn 0.0000 1.0000 0.0000
s off
f 86//72 87//72 85//72
f 88//73 91//73 87//73
f 92//74 89//74 91//74
f 90//75 85//75 89//75
f 91//76 85//76 87//76
f 88//77 90//77 92//77
f 86//72 88//72 87//72
f 88//73 92//73 91//73
f 92//74 90//74 89//74
f 90//75 86//75 85//75
f 91//76 89//76 85//76
f 88//77 86//77 90//77
o Cube.005
v -0.859924 -0.443359 -0.370566
v -0.859924 0.482089 -0.370566
v -0.859924 -0.443359 -1.296013
v -0.859924 0.482089 -1.296013
v 0.065524 -0.443359 -0.370566
v 0.065524 0.482089 -0.370566
v 0.065524 -0.443359 -1.296013
v 0.065524 0.482089 -1.296013
vn -1.0000 0.0000 0.0000
vn 0.0000 0.0000 -1.0000
vn 1.0000 0.0000 0.0000
vn 0.0000 0.0000 1.0000
vn 0.0000 -1.0000 0.0000
vn 0.0000 1.0000 0.0000
s off
f 94//78 95//78 93//78
f 96//79 99//79 95//79
f 100//80 97//80 99//80
f 98//81 93//81 97//81
f 99//82 93//82 95//82
f 96//83 98//83 100//83
f 94//78 96//78 95//78
f 96//79 100//79 99//79
f 100//80 98//80 97//80
f 98//81 94//81 93//81
f 99//82 97//82 93//82
f 96//83 94//83 98//83
o Cube.004
v -1.811744 -0.440537 -0.373859
v -1.811744 0.508497 -0.373859
v -1.811744 -0.440537 -1.322893
v -1.811744 0.508497 -1.322893
v -0.862711 -0.440537 -0.373859
v -0.862711 0.508497 -0.373859
v -0.862711 -0.440537 -1.322893
v -0.862711 0.508497 -1.322893
vn -1.0000 0.0000 0.0000
vn 0.0000 0.0000 -1.0000
vn 1.0000 0.0000 0.0000
vn 0.0000 0.0000 1.0000
vn 0.0000 -1.0000 0.0000
vn 0.0000 1.0000 0.0000
s off
f 102//84 103//84 101//84
f 104//85 107//85 103//85
f 108//86 105//86 107//86
f 106//87 101//87 105//87
f 107//88 101//88 103//88
f 104//89 106//89 108//89
f 102//84 104//84 103//84
f 104//85 108//85 107//85
f 108//86 106//86 105//86
f 106//87 102//87 101//87
f 107//88 105//88 101//88
f 104//89 102//89 106//89
o Cube.002
v 1.095247 -0.453409 0.503554
v 1.095247 0.505872 0.503554
v 1.095247 -0.453409 -0.455726
v 1.095247 0.505872 -0.455726
v 2.054527 -0.453409 0.503554
v 2.054527 0.505872 0.503554
v 2.054527 -0.453409 -0.455726
v 2.054527 0.505872 -0.455726
vn -1.0000 0.0000 0.0000
vn 0.0000 0.0000 -1.0000
vn 1.0000 0.0000 0.0000
vn 0.0000 0.0000 1.0000
vn 0.0000 -1.0000 0.0000
vn 0.0000 1.0000 0.0000
s off
f 110//90 111//90 109//90
f 112//91 115//91 111//91
f 116//92 113//92 115//92
f 114//93 109//93 113//93
f 115//94 109//94 111//94
f 112//95 114//95 116//95
f 110//90 112//90 111//90
f 112//91 116//91 115//91
f 116//92 114//92 113//92
f 114//93 110//93 109//93
f 115//94 113//94 109//94
f 112//95 110//95 114//95
o Cube.001
v 0.092658 -0.475858 0.730903
v 0.092658 0.522026 0.730903
v 0.092658 -0.475858 -0.266980
v 0.092658 0.522026 -0.266980
v 1.090542 -0.475858 0.730903
v 1.090542 0.522026 0.730903
v 1.090542 -0.475858 -0.266980
v 1.090542 0.522026 -0.266980
vn -1.0000 0.0000 0.0000
vn 0.0000 0.0000 -1.0000
vn 1.0000 0.0000 0.0000
vn 0.0000 0.0000 1.0000
vn 0.0000 -1.0000 0.0000
vn 0.0000 1.0000 0.0000
s off
f 118//96 119//96 117//96
f 120//97 123//97 119//97
f 124//98 121//98 123//98
f 122//99 117//99 121//99
f 123//100 117//100 119//100
f 120//101 122//101 124//101
f 118//96 120//96 119//96
f 120//97 124//97 123//97
f 124//98 122//98 121//98
f 122//99 118//99 117//99
f 123//100 121//100 117//100
f 120//101 118//101 122//101
o Cube
v 0.071470 -0.494035 -0.365118
v 0.071470 -0.494035 0.622952
v -0.916601 -0.494035 0.622952
v -0.916600 -0.494035 -0.365119
v 0.071470 0.494035 -0.365118
v 0.071469 0.494035 0.622952
v -0.916601 0.494035 0.622952
v -0.916601 0.494035 -0.365118
vn 0.0000 -1.0000 0.0000
vn 0.0000 1.0000 0.0000
vn 1.0000 -0.0000 0.0000
vn 0.0000 -0.0000 1.0000
vn -1.0000 -0.0000 -0.0000
vn 0.0000 0.0000 -1.0000
s off
f 126//102 128//102 125//102
f 129//103 131//103 130//103
f 129//104 126//104 125//104
f 130//105 127//105 126//105
f 131//106 128//106 127//106
f 125//107 132//107 129//107
f 126//102 127//102 128//102
f 129//103 132//103 131//103
f 129//104 130//104 126//104
f 130//105 131//105 127//105
f 131//106 132//106 128//106
f 125//107 128//107 132//107
