# Blender v2.78 (sub 0) OBJ File: 'handModel.blend'
# www.blender.org
o Metacarpale_V_Cube.011
v 1.893656 -0.387172 -1.269746
v 1.893656 0.549478 -1.269746
v 2.309043 -0.332670 -4.539103
v 2.309043 0.494976 -4.539103
v 2.825810 -0.387172 -1.178082
v 2.825810 0.549478 -1.178082
v 3.132716 -0.332670 -4.458107
v 3.132716 0.494976 -4.458107
v 2.323430 -0.249614 -3.884837
v 2.323430 0.411919 -3.884837
v 2.981788 -0.249614 -3.820098
v 2.981788 0.411919 -3.820098
v 2.145576 -0.249614 -2.361119
v 2.803934 0.411919 -2.296380
v 2.145576 0.411919 -2.361119
v 2.803934 -0.249614 -2.296380
v 1.660121 -0.227426 -0.733038
v 1.660121 0.389731 -0.733038
v 2.274316 -0.227426 -0.672642
v 2.274316 0.389731 -0.672642
vn -0.9998 0.0000 0.0220
vn 0.0979 0.0000 -0.9952
vn 0.9998 0.0000 -0.0196
vn -0.0979 0.0000 0.9952
vn 0.0120 -0.9924 -0.1223
vn 0.0120 0.9924 -0.1223
vn -0.0124 0.9919 0.1262
vn -0.0124 -0.9919 0.1262
vn 0.9731 0.0000 0.2302
vn -0.9933 0.0000 -0.1159
vn -0.9744 0.0000 -0.2249
vn 0.0000 1.0000 0.0000
vn 0.0000 -1.0000 0.0000
vn 0.9933 0.0000 0.1159
vn -0.0270 0.9612 0.2744
vn -0.0270 -0.9612 0.2744
vn -0.6757 0.0000 -0.7372
s off
f 9//1 4//1 3//1
f 4//2 7//2 3//2
f 14//3 5//3 16//3
f 6//4 1//4 5//4
f 13//5 5//5 1//5
f 15//6 6//6 14//6
f 4//7 12//7 8//7
f 3//8 11//8 9//8
f 7//9 12//9 11//9
f 15//10 9//10 13//10
f 2//11 13//11 1//11
f 10//12 14//12 12//12
f 9//13 16//13 13//13
f 12//14 16//14 11//14
f 2//15 20//15 6//15
f 1//16 19//16 17//16
f 5//17 20//17 6//17
f 9//1 10//1 4//1
f 4//2 8//2 7//2
f 14//3 6//3 5//3
f 6//4 2//4 1//4
f 13//5 16//5 5//5
f 15//6 2//6 6//6
f 4//7 10//7 12//7
f 3//8 7//8 11//8
f 7//9 8//9 12//9
f 15//10 10//10 9//10
f 2//11 15//11 13//11
f 10//12 15//12 14//12
f 9//13 11//13 16//13
f 12//14 14//14 16//14
f 2//15 18//15 20//15
f 1//16 5//16 19//16
f 5//17 19//17 20//17
