# Blender v2.78 (sub 0) OBJ File: 'handModel.blend'
# www.blender.org
o Metacarpale_III_Cube.009
v 0.111924 -0.366392 -1.676183
v 0.111924 0.570258 -1.676183
v 0.206983 -0.311890 -5.147240
v 0.206983 0.515756 -5.147240
v 1.048509 -0.366392 -1.665241
v 1.048509 0.570258 -1.665241
v 1.034572 -0.311890 -5.137571
v 1.034572 0.515756 -5.137571
v 0.282192 -0.228834 -4.475117
v 0.282192 0.432700 -4.475117
v 0.943681 -0.228834 -4.467388
v 0.943681 0.432700 -4.467388
v 0.262788 -0.228834 -2.814238
v 0.924276 0.432700 -2.806509
v 0.262788 0.432700 -2.814238
v 0.924276 -0.228834 -2.806509
vn -0.9938 0.0000 0.1112
vn 0.0117 0.0000 -0.9999
vn 0.9941 0.0000 -0.1082
vn -0.0117 0.0000 0.9999
vn 0.0014 -0.9928 -0.1198
vn 0.0014 0.9928 -0.1198
vn -0.0014 0.9924 0.1228
vn -0.0014 -0.9924 0.1228
vn 0.9909 0.0000 0.1344
vn -0.9999 0.0000 -0.0117
vn -0.9913 0.0000 -0.1314
vn 0.0000 1.0000 0.0000
vn 0.0000 -1.0000 -0.0000
vn 0.9999 0.0000 0.0117
s off
f 10//1 3//1 9//1
f 4//2 7//2 3//2
f 14//3 5//3 16//3
f 6//4 1//4 5//4
f 16//5 1//5 13//5
f 15//6 6//6 14//6
f 8//7 10//7 12//7
f 7//8 9//8 3//8
f 8//9 11//9 7//9
f 15//10 9//10 13//10
f 2//11 13//11 1//11
f 12//12 15//12 14//12
f 11//13 13//13 9//13
f 12//14 16//14 11//14
f 10//1 4//1 3//1
f 4//2 8//2 7//2
f 14//3 6//3 5//3
f 6//4 2//4 1//4
f 16//5 5//5 1//5
f 15//6 2//6 6//6
f 8//7 4//7 10//7
f 7//8 11//8 9//8
f 8//9 12//9 11//9
f 15//10 10//10 9//10
f 2//11 15//11 13//11
f 12//12 10//12 15//12
f 11//13 16//13 13//13
f 12//14 14//14 16//14
