# Blender v2.78 (sub 0) OBJ File: 'handModel.blend'
# www.blender.org
o Phalax_proxi_malis_III_Cube.014
v 0.211779 -0.306651 -5.147015
v 0.211779 0.510517 -5.147015
v 0.242848 -0.311890 -8.254717
v 0.242848 0.515756 -8.254717
v 1.028891 -0.306651 -5.137468
v 1.028891 0.510517 -5.137468
v 1.070437 -0.311890 -8.245048
v 1.070437 0.515756 -8.245048
v 0.317711 -0.228834 -7.552939
v 0.317711 0.432700 -7.552939
v 0.979199 -0.228834 -7.545211
v 0.979199 0.432700 -7.545211
v 0.302212 -0.228834 -6.226341
v 0.963700 0.432700 -6.218613
v 0.302212 0.432700 -6.226341
v 0.963700 -0.228834 -6.218613
vn -0.9944 0.0000 0.1061
vn 0.0117 0.0000 -0.9999
vn 0.9982 0.0000 -0.0602
vn -0.0117 0.0000 0.9999
vn 0.0008 -0.9974 -0.0718
vn 0.0008 0.9974 -0.0718
vn -0.0014 0.9931 0.1177
vn -0.0014 -0.9931 0.1177
vn 0.9916 0.0000 0.1293
vn -0.9999 0.0000 -0.0117
vn -0.9965 0.0000 -0.0835
vn 0.0000 1.0000 0.0000
vn 0.0000 -1.0000 0.0000
vn 0.9999 0.0000 0.0117
s off
f 10//1 3//1 9//1
f 4//2 7//2 3//2
f 14//3 5//3 16//3
f 6//4 1//4 5//4
f 16//5 1//5 13//5
f 14//6 2//6 6//6
f 4//7 12//7 8//7
f 7//8 9//8 3//8
f 8//9 11//9 7//9
f 15//10 9//10 13//10
f 2//11 13//11 1//11
f 12//12 15//12 14//12
f 11//13 13//13 9//13
f 12//14 16//14 11//14
f 10//1 4//1 3//1
f 4//2 8//2 7//2
f 14//3 6//3 5//3
f 6//4 2//4 1//4
f 16//5 5//5 1//5
f 14//6 15//6 2//6
f 4//7 10//7 12//7
f 7//8 11//8 9//8
f 8//9 12//9 11//9
f 15//10 10//10 9//10
f 2//11 15//11 13//11
f 12//12 10//12 15//12
f 11//13 16//13 13//13
f 12//14 14//14 16//14
