# Blender v2.78 (sub 0) OBJ File: 'handModel.blend'
# www.blender.org
o Phalanx_distalis_II_Cube.023
v -0.862497 -0.309811 -9.417059
v -0.862497 0.513677 -9.417059
v -0.630655 -0.081598 -10.745775
v -0.633024 0.285464 -10.740353
v -0.039010 -0.309811 -9.416805
v -0.039010 0.513677 -9.416805
v -0.263593 -0.081598 -10.745662
v -0.265962 0.285464 -10.740240
v -0.704766 -0.134432 -10.357329
v -0.708760 0.360179 -10.348189
v -0.166039 -0.178195 -10.357973
v -0.214149 0.360179 -10.348038
v -0.691054 -0.138519 -9.911632
v -0.210153 0.342385 -9.901610
v -0.691057 0.342385 -9.901758
v -0.210150 -0.138519 -9.911484
vn -0.9822 -0.0036 -0.1879
vn 0.0003 0.0148 -0.9999
vn 0.9457 0.0067 -0.3249
vn -0.0003 0.0000 1.0000
vn 0.0001 -0.9449 -0.3272
vn 0.0001 0.9429 -0.3332
vn 0.0001 0.9823 -0.1871
vn 0.0000 -0.9909 -0.1348
vn 0.9709 0.0908 -0.2217
vn -0.9995 -0.0006 0.0307
vn -0.9455 0.0067 -0.3255
vn -0.0000 0.9992 0.0398
vn 0.0000 -1.0000 -0.0092
vn 0.9921 0.0870 0.0903
vn -0.9820 -0.0044 -0.1888
vn 0.9430 0.0000 -0.3329
vn -0.0792 -0.9718 -0.2222
vn 0.9911 0.0084 -0.1325
vn -0.9992 -0.0088 0.0393
vn -0.9428 0.0000 -0.3335
vn -0.0806 -0.9935 0.0803
vn 1.0000 0.0002 -0.0089
s off
f 9//1 4//1 3//1
f 3//2 8//2 7//2
f 14//3 5//3 16//3
f 6//4 1//4 5//4
f 16//5 1//5 13//5
f 15//6 6//6 14//6
f 4//7 12//7 8//7
f 7//8 9//8 3//8
f 7//9 12//9 11//9
f 15//10 9//10 13//10
f 1//11 15//11 13//11
f 12//12 15//12 14//12
f 9//13 16//13 13//13
f 12//14 16//14 11//14
f 9//15 10//15 4//15
f 3//2 4//2 8//2
f 14//16 6//16 5//16
f 6//4 2//4 1//4
f 16//5 5//5 1//5
f 15//6 2//6 6//6
f 4//7 10//7 12//7
f 7//17 11//17 9//17
f 7//18 8//18 12//18
f 15//19 10//19 9//19
f 1//20 2//20 15//20
f 12//12 10//12 15//12
f 9//21 11//21 16//21
f 12//22 14//22 16//22
