# Blender v2.78 (sub 0) OBJ File: 'handModel.blend'
# www.blender.org
o Phalax_proxi_malis_I_Cube.017
v -2.888238 -0.306651 -4.249218
v -2.888238 0.510517 -4.249218
v -3.527603 -0.252359 -6.461493
v -3.527603 0.456225 -6.461493
v -2.112232 -0.306651 -4.505297
v -2.112232 0.510517 -4.505297
v -2.837046 -0.252359 -6.620306
v -2.837046 0.456225 -6.620306
v -3.323821 -0.181251 -5.892663
v -3.323821 0.385117 -5.892663
v -2.771861 -0.181251 -6.019601
v -2.771861 0.385117 -6.019601
v -3.121053 -0.234408 -4.773808
v -2.465485 0.438273 -4.924574
v -3.121053 0.438273 -4.773808
v -2.465485 -0.234408 -4.924574
vn -0.9414 0.0000 0.3373
vn -0.2241 0.0000 -0.9746
vn 0.7648 0.0000 -0.6443
vn 0.3134 0.0000 0.9496
vn -0.0285 -0.9919 -0.1239
vn -0.0440 0.9901 -0.1335
vn 0.0264 0.9931 0.1147
vn 0.0264 -0.9931 0.1147
vn 0.9942 0.0000 -0.1079
vn -0.9840 0.0000 0.1783
vn -0.9140 0.0000 0.4056
vn -0.0105 0.9989 -0.0456
vn -0.0105 -0.9989 -0.0456
vn 0.9630 0.0000 -0.2694
vn -0.0440 -0.9901 -0.1335
vn -0.0285 0.9919 -0.1239
s off
f 10//1 3//1 9//1
f 4//2 7//2 3//2
f 14//3 5//3 16//3
f 6//4 1//4 5//4
f 16//5 1//5 13//5
f 14//6 2//6 6//6
f 8//7 10//7 12//7
f 7//8 9//8 3//8
f 8//9 11//9 7//9
f 15//10 9//10 13//10
f 2//11 13//11 1//11
f 12//12 15//12 14//12
f 11//13 13//13 9//13
f 12//14 16//14 11//14
f 10//1 4//1 3//1
f 4//2 8//2 7//2
f 14//3 6//3 5//3
f 6//4 2//4 1//4
f 16//15 5//15 1//15
f 14//16 15//16 2//16
f 8//7 4//7 10//7
f 7//8 11//8 9//8
f 8//9 12//9 11//9
f 15//10 10//10 9//10
f 2//11 15//11 13//11
f 12//12 10//12 15//12
f 11//13 16//13 13//13
f 12//14 14//14 16//14
