# Blender v2.78 (sub 0) OBJ File: 'handModel.blend'
# www.blender.org
o Phalax_proxi_malis_V_Cube.016
v 2.338343 -0.293833 -4.527421
v 2.338343 0.497699 -4.527421
v 2.685184 -0.237983 -7.404930
v 2.685184 0.441849 -7.404930
v 3.126974 -0.293833 -4.459714
v 3.126974 0.497699 -4.459714
v 3.362524 -0.237983 -7.346776
v 3.362524 0.441849 -7.346776
v 2.631520 -0.227415 -6.723871
v 2.631520 0.431280 -6.723871
v 3.287798 -0.227415 -6.667545
v 3.287798 0.431280 -6.667545
v 2.508158 -0.221324 -5.511803
v 3.152297 0.425190 -5.456556
v 2.508158 0.425190 -5.511803
v 3.152297 -0.221324 -5.456556
vn -0.9969 0.0000 -0.0786
vn 0.0855 0.0000 -0.9963
vn 0.9997 0.0000 0.0254
vn -0.0855 0.0000 0.9963
vn 0.0062 -0.9974 -0.0724
vn 0.0062 0.9974 -0.0724
vn -0.0013 0.9999 0.0154
vn -0.0013 -0.9999 0.0154
vn 0.9940 0.0000 0.1094
vn -0.9949 0.0000 -0.1013
vn -0.9854 0.0000 -0.1700
vn -0.0004 1.0000 0.0050
vn -0.0004 -1.0000 0.0050
vn 0.9938 0.0000 0.1112
s off
f 10//1 3//1 9//1
f 4//2 7//2 3//2
f 14//3 5//3 16//3
f 6//4 1//4 5//4
f 13//5 5//5 1//5
f 15//6 6//6 14//6
f 4//7 12//7 8//7
f 3//8 11//8 9//8
f 8//9 11//9 7//9
f 15//10 9//10 13//10
f 2//11 13//11 1//11
f 10//12 14//12 12//12
f 9//13 16//13 13//13
f 12//14 16//14 11//14
f 10//1 4//1 3//1
f 4//2 8//2 7//2
f 14//3 6//3 5//3
f 6//4 2//4 1//4
f 13//5 16//5 5//5
f 15//6 2//6 6//6
f 4//7 10//7 12//7
f 3//8 7//8 11//8
f 8//9 12//9 11//9
f 15//10 10//10 9//10
f 2//11 15//11 13//11
f 10//12 15//12 14//12
f 9//13 11//13 16//13
f 12//14 14//14 16//14
