# Blender v2.78 (sub 0) OBJ File: 'handModel.blend'
# www.blender.org
o Phalanx_media_II_Cube.019
v 0.254452 -0.306651 -8.255444
v 0.254452 0.510517 -8.255444
v 0.267742 -0.311890 -9.841454
v 0.267742 0.515756 -9.841454
v 1.071563 -0.306651 -8.245897
v 1.071563 0.510517 -8.245897
v 1.095331 -0.311890 -9.831784
v 1.095331 0.515756 -9.831784
v 0.344927 -0.228834 -9.338452
v 0.344927 0.432700 -9.338452
v 1.006415 -0.228834 -9.330724
v 1.006415 0.432700 -9.330724
v 0.339809 -0.228834 -8.900349
v 1.001297 0.432700 -8.892620
v 0.339809 0.432700 -8.900349
v 1.001297 -0.228834 -8.892620
vn -0.9884 0.0000 0.1517
vn 0.0117 0.0000 -0.9999
vn 0.9941 0.0000 -0.1080
vn -0.0117 0.0000 0.9999
vn 0.0014 -0.9928 -0.1196
vn 0.0014 0.9928 -0.1196
vn -0.0019 0.9866 0.1632
vn -0.0019 -0.9866 0.1632
vn 0.9846 0.0000 0.1747
vn -0.9999 0.0000 -0.0117
vn -0.9914 0.0000 -0.1312
vn 0.0000 1.0000 0.0000
vn 0.0000 -1.0000 -0.0000
vn 0.9999 0.0000 0.0117
s off
f 9//1 4//1 3//1
f 4//2 7//2 3//2
f 16//3 6//3 5//3
f 6//4 1//4 5//4
f 13//5 5//5 1//5
f 15//6 6//6 14//6
f 8//7 10//7 12//7
f 7//8 9//8 3//8
f 8//9 11//9 7//9
f 15//10 9//10 13//10
f 1//11 15//11 13//11
f 12//12 15//12 14//12
f 11//13 13//13 9//13
f 12//14 16//14 11//14
f 9//1 10//1 4//1
f 4//2 8//2 7//2
f 16//3 14//3 6//3
f 6//4 2//4 1//4
f 13//5 16//5 5//5
f 15//6 2//6 6//6
f 8//7 4//7 10//7
f 7//8 11//8 9//8
f 8//9 12//9 11//9
f 15//10 10//10 9//10
f 1//11 2//11 15//11
f 12//12 10//12 15//12
f 11//13 16//13 13//13
f 12//14 14//14 16//14
