# Blender v2.78 (sub 0) OBJ File: 'handModel.blend'
# www.blender.org
o Phalanx_media_IV_Cube.021
v 2.698339 -0.243422 -7.339623
v 2.698339 0.447288 -7.339623
v 2.801480 -0.247851 -8.676270
v 2.801480 0.451716 -8.676270
v 3.386823 -0.243422 -7.284209
v 3.386823 0.447288 -7.284209
v 3.498792 -0.247851 -8.620146
v 3.498792 0.451716 -8.620146
v 2.837411 -0.177647 -8.247636
v 2.837411 0.381513 -8.247636
v 3.394769 -0.177647 -8.202775
v 3.394769 0.381513 -8.202775
v 2.807700 -0.177647 -7.878498
v 3.365058 0.381513 -7.833637
v 2.807700 0.381513 -7.878498
v 3.365058 -0.177647 -7.833637
vn -0.9965 0.0000 0.0835
vn 0.0802 0.0000 -0.9968
vn 0.9992 0.0000 -0.0396
vn -0.0802 0.0000 0.9968
vn 0.0096 -0.9928 -0.1192
vn 0.0096 0.9928 -0.1192
vn -0.0131 0.9866 0.1627
vn -0.0131 -0.9866 0.1627
vn 0.9703 0.0000 0.2418
vn -0.9968 0.0000 -0.0802
vn -0.9800 0.0000 -0.1989
vn 0.0000 1.0000 0.0000
vn 0.0000 -1.0000 0.0000
vn 0.9968 0.0000 0.0802
s off
f 10//1 3//1 9//1
f 4//2 7//2 3//2
f 16//3 6//3 5//3
f 6//4 1//4 5//4
f 16//5 1//5 13//5
f 14//6 2//6 6//6
f 8//7 10//7 12//7
f 7//8 9//8 3//8
f 8//9 11//9 7//9
f 15//10 9//10 13//10
f 2//11 13//11 1//11
f 12//12 15//12 14//12
f 11//13 13//13 9//13
f 12//14 16//14 11//14
f 10//1 4//1 3//1
f 4//2 8//2 7//2
f 16//3 14//3 6//3
f 6//4 2//4 1//4
f 16//5 5//5 1//5
f 14//6 15//6 2//6
f 8//7 4//7 10//7
f 7//8 11//8 9//8
f 8//9 12//9 11//9
f 15//10 10//10 9//10
f 2//11 15//11 13//11
f 12//12 10//12 15//12
f 11//13 16//13 13//13
f 12//14 14//14 16//14
